<svg width="13" height="14" viewBox="0 0 13 14" fill="none" xmlns="http://www.w3.org/2000/svg">
<path fill-rule="evenodd" clip-rule="evenodd" d="M8.12384 0.00012207C7.93121 0.00012207 7.81893 0.0119403 7.81893 0.0119403C7.35211 0.0580312 6.99048 0.450395 6.99048 0.918395V4.56549C6.99048 5.06894 7.39821 5.47785 7.90166 5.47785H11.5476C12.0522 5.47785 12.4599 5.06894 12.4599 4.56549C12.4599 4.34094 12.4268 2.33185 11.2805 1.18667C10.2109 0.11594 8.71593 0.00012207 8.12384 0.00012207ZM8.12384 0.911304C8.6143 0.911304 9.80911 1.00349 10.6364 1.83076C11.5476 2.74194 11.5476 4.56549 11.5476 4.56549H7.90166V0.918395C7.90166 0.918395 7.98321 0.911304 8.12384 0.911304Z" fill="#008292"/>
<path fill-rule="evenodd" clip-rule="evenodd" d="M5.46994 1.52704C2.45394 1.52704 0.000488281 4.16013 0.000488281 7.39477C0.000488281 10.5266 2.54849 13.0746 5.68031 13.0746C8.74831 13.0746 11.2443 10.4852 11.2443 7.3014C11.2443 6.79795 10.8366 6.38904 10.3331 6.38904H6.38112V2.43822C6.38112 1.93595 5.9734 1.52704 5.46994 1.52704ZM5.46994 2.43822V7.3014H10.3331C10.3331 9.93449 8.31458 12.1634 5.68031 12.1634C3.04722 12.1634 0.91167 10.0279 0.91167 7.39477C0.91167 4.76049 2.83567 2.43822 5.46994 2.43822Z" fill="#008292"/>
</svg>
