<svg width="15" height="11" viewBox="0 0 15 11" fill="none" xmlns="http://www.w3.org/2000/svg">
<mask id="mask0" style="mask-type:alpha" maskUnits="userSpaceOnUse" x="0" y="0" width="15" height="11">
<path fill-rule="evenodd" clip-rule="evenodd" d="M0 0.154022H14.6961V10.8421H0V0.154022Z" fill="white"/>
</mask>
<g mask="url(#mask0)">
<path fill-rule="evenodd" clip-rule="evenodd" d="M7.34827 0.154022C3.16212 0.154022 0.269424 4.77633 0.14827 4.97248C-0.050191 5.29556 -0.0490372 5.70171 0.149424 6.02364C0.270578 6.21979 3.16212 10.8283 7.34481 10.8421C11.5425 10.8421 14.4271 6.21864 14.5483 6.02248C14.7456 5.70056 14.7456 5.29441 14.5483 4.97248C14.4271 4.77633 11.5344 0.154022 7.34827 0.154022ZM7.34827 1.15556C11.0221 1.15556 13.6944 5.49748 13.6944 5.49748C13.6944 5.49748 11.029 9.84056 7.36442 9.84056H7.34827C3.67442 9.82787 1.00212 5.49748 1.00212 5.49748C1.00212 5.49748 3.67442 1.15556 7.34827 1.15556Z" fill="#008394"/>
</g>
<path fill-rule="evenodd" clip-rule="evenodd" d="M7.34809 2.82562C5.87463 2.82562 4.67578 4.02447 4.67578 5.49793C4.67578 6.97139 5.87463 8.17024 7.34809 8.17024C8.82155 8.17024 10.0204 6.97139 10.0204 5.49793C10.0204 4.02447 8.82155 2.82562 7.34809 2.82562ZM7.34809 3.82831C8.27001 3.82831 9.0177 4.57601 9.0177 5.49793C9.0177 6.41985 8.27001 7.16755 7.34809 7.16755C6.42617 7.16755 5.67847 6.41985 5.67847 5.49793C5.67847 4.57601 6.42617 3.82831 7.34809 3.82831Z" fill="#008394"/>
<path d="M2.99097 9.61799L11.2571 1.35184" stroke="#008394" stroke-width="0.868" stroke-linecap="round" stroke-linejoin="round"/>
</svg>
