<svg width="11" height="13" viewBox="0 0 11 13" fill="none" xmlns="http://www.w3.org/2000/svg">
<mask id="mask0" style="mask-type:alpha" maskUnits="userSpaceOnUse" x="0" y="0" width="11" height="13">
<path fill-rule="evenodd" clip-rule="evenodd" d="M0.000488281 0H10.6375V12.7007H0.000488281V0Z" fill="white"/>
</mask>
<g mask="url(#mask0)">
<path fill-rule="evenodd" clip-rule="evenodd" d="M1.19399 0C0.994613 0 0.795238 0.0495 0.615113 0.149875C0.235613 0.36025 0.000488281 0.760375 0.000488281 1.19488V11.5074C0.000488281 11.9405 0.235613 12.3406 0.615113 12.551C0.795238 12.6514 0.994613 12.7009 1.19399 12.7009C1.41399 12.7009 1.63399 12.6404 1.82649 12.5194L10.0765 7.36312C10.4257 7.1445 10.6375 6.76225 10.6375 6.35112C10.6375 5.93862 10.4257 5.55638 10.0765 5.33775L1.82649 0.1815C1.63399 0.0605 1.41399 0 1.19399 0ZM1.19399 1.19488L9.44399 6.35112L1.19399 11.5074V1.19488Z" fill="#008394"/>
</g>
</svg>
